<svg xmlns="http://www.w3.org/2000/svg" viewBox="0 0 459 636"><defs><clipPath id="clip-path"><path transform="rotate(180 229.62 317.77)" fill="none" d="M.11-.2h459.02v635.94H.11z"/></clipPath><style>.cls-5{fill:#fff}</style></defs><g style="isolation:isolate"><g clip-path="url(#clip-path)" opacity=".07" id="Layer_1" data-name="Layer 1"><path class="cls-5" d="M612.86 8.08l8.43 3.16-284.06 739.72-8.43-3.17L612.86 8.08zM555.4-13.49l26.97 10.12-284.06 739.72-26.97-10.12L555.4-13.49zM345.6-92.23l8.43 3.16L69.97 650.64l-8.43-3.16L345.6-92.23zM159.39-162.13l43.82 16.45-284.07 739.71-43.81-16.44 284.06-739.72zM189.61 695.55L473.67-44.16l-65.72-24.67-284.06 739.71 65.72 24.67zM115.46 667.72L399.53-72l-15.17-5.69L100.3 662.03l15.16 5.69z"/></g></g></svg>