<svg xmlns="http://www.w3.org/2000/svg" xmlns:xlink="http://www.w3.org/1999/xlink" viewBox="0 0 459 636"><defs><style>.cls-1{fill:none;}.cls-2{isolation:isolate;}.cls-3{opacity:0.07;mix-blend-mode:hard-light;}.cls-4{clip-path:url(#clip-path);}.cls-5{fill:#fff;}</style><clipPath id="clip-path"><rect class="cls-1" x="0.11" y="-0.2" width="459.02" height="635.94" transform="translate(459.24 635.54) rotate(180)"/></clipPath></defs><g class="cls-2"><g id="Layer_1" data-name="Layer 1"><g class="cls-3"><g class="cls-4"><polygon class="cls-5" points="612.86 8.08 621.29 11.24 337.23 750.96 328.8 747.79 612.86 8.08"/><polygon class="cls-5" points="555.4 -13.49 582.37 -3.37 298.31 736.35 271.34 726.23 555.4 -13.49"/><polygon class="cls-5" points="345.6 -92.23 354.03 -89.07 69.97 650.64 61.54 647.48 345.6 -92.23"/><polygon class="cls-5" points="159.39 -162.13 203.21 -145.68 -80.86 594.03 -124.67 577.59 159.39 -162.13"/><polygon class="cls-5" points="189.61 695.55 473.67 -44.16 407.95 -68.83 123.89 670.88 189.61 695.55"/><polygon class="cls-5" points="115.46 667.72 399.53 -72 384.36 -77.69 100.3 662.03 115.46 667.72"/></g></g></g></g></svg>