<svg id="Layer_1" data-name="Layer 1" xmlns="http://www.w3.org/2000/svg" viewBox="0 0 532 534"><path fill="#fff8ea" d="M350,518H184a32.1,32.1,0,0,0-4.72-.8c-19.48-.58-38.92-1.46-57.94-6.23C78.42,500.2,47.2,475.31,29.5,434.38c-9.6-22.19-12.39-45.78-13.36-69.68-.22-5.24-.75-10.47-1.14-15.7V183a32.1,32.1,0,0,0,.8-4.72c.58-19.48,1.46-38.92,6.23-57.94C32.8,77.42,57.69,46.2,98.62,28.5c22.19-9.6,45.78-12.39,69.68-13.36,5.24-.22,10.47-.75,15.7-1.14H350a32.1,32.1,0,0,0,4.72.8c19.48.58,38.92,1.46,57.94,6.23C455.58,31.8,486.8,56.69,504.5,97.62c9.6,22.19,12.38,45.78,13.36,69.68.22,5.24.75,10.47,1.14,15.7V349a32.1,32.1,0,0,0-.8,4.72c-.58,19.48-1.46,38.92-6.23,57.94-10.77,42.92-35.66,74.14-76.59,91.84-22.19,9.6-45.78,12.38-69.68,13.36C360.46,517.08,355.23,517.61,350,518ZM60.06,265.74h.78c0,21.16-.41,42.32.12,63.47.48,19.62,1.24,39.29,3.22,58.8,1.92,19,8.57,36.5,21.43,51.24,17.83,20.43,41.31,29,67.29,30.54,29.23,1.77,58.56,2.24,87.85,2.59q44.73.54,89.47-.35c19.62-.39,39.29-1.25,58.8-3.22,19-1.91,36.5-8.57,51.24-21.44,20.43-17.82,29-41.31,30.54-67.28,1.77-29.23,2.24-58.56,2.59-87.86q.54-44.71-.35-89.46c-.39-19.62-1.24-39.29-3.22-58.8-1.92-19-8.57-36.5-21.43-51.24-17.83-20.43-41.31-29-67.29-30.54-29.73-1.78-59.56-2.23-89.35-2.59-29.15-.36-58.33-.37-87.47.39-21.76.56-43.74,1-65.18,4.3C102.47,70,77.56,91.05,67.65,127.41a165,165,0,0,0-5.43,36.93C61,198.12,60.71,231.94,60.06,265.74Zm336.45.48c-.06,71.62-58.17,129.42-130,129.29-71.35-.14-129.11-58.21-129-129.73a129.43,129.43,0,0,1,130-129.29C338.84,136.64,396.56,194.67,396.51,266.22ZM266.86,349.83c45.91,0,83.92-37.49,84-82.81.05-46.76-37.14-84.81-82.94-84.85-46.92,0-84.71,37.24-84.72,83.56S220.66,349.83,266.86,349.83ZM401.33,101.16a30.4,30.4,0,1,0,30.51,30.35A30.45,30.45,0,0,0,401.33,101.16Z"/></svg>