<svg viewBox="0 0 98 30" fill="none" xmlns="http://www.w3.org/2000/svg"><path fill-rule="evenodd" clip-rule="evenodd" d="M97.596 10.242c0 .93-.7 1.511-1.505 1.511-.806 0-1.509-.58-1.509-1.51 0-.931.703-1.508 1.509-1.508.804 0 1.505.577 1.505 1.507zm-2.76 0c0 .779.562 1.268 1.255 1.268.69 0 1.251-.489 1.251-1.268 0-.78-.56-1.263-1.251-1.263-.69 0-1.256.488-1.256 1.263zm1.277-.77c.39 0 .52.206.52.428 0 .203-.12.34-.268.409l.35.652h-.287l-.295-.578h-.304v.578h-.238V9.472h.522zm-.281.693h.266c.171 0 .273-.107.273-.243s-.072-.224-.274-.224h-.265v.467z" fill="none"></path><path fill-rule="evenodd" clip-rule="evenodd" d="M15.138.11C7.32.11.913 6.112.305 13.742l7.977 3.285a4.203 4.203 0 012.607-.723l3.548-5.12v-.073c0-3.083 2.518-5.59 5.613-5.59 3.096 0 5.614 2.507 5.614 5.59 0 3.082-2.518 5.59-5.614 5.59l-.127-.002-5.06 3.596c.002.065.004.132.004.198 0 2.314-1.89 4.196-4.213 4.196a4.215 4.215 0 01-4.131-3.37L.816 18.973a14.88 14.88 0 0014.321 10.783c8.221 0 14.885-6.637 14.885-14.823S23.36.11 15.138.11z" fill="#fff8ea"></path><path fill-rule="evenodd" clip-rule="evenodd" d="M9.633 22.6l-1.829-.751a3.143 3.143 0 001.63 1.543 3.17 3.17 0 004.134-1.696 3.115 3.115 0 00.005-2.41 3.161 3.161 0 00-4.038-1.743l1.889.778a2.314 2.314 0 011.253 3.032A2.331 2.331 0 019.633 22.6zM23.79 11.112c0-2.054-1.677-3.725-3.74-3.725-2.062 0-3.74 1.67-3.74 3.725 0 2.053 1.678 3.724 3.74 3.724 2.063 0 3.74-1.67 3.74-3.724zm-6.544-.007a2.804 2.804 0 012.81-2.798 2.804 2.804 0 012.81 2.798 2.804 2.804 0 01-2.81 2.798 2.804 2.804 0 01-2.81-2.798zM45.657 10.388l-.968 1.694a4.857 4.857 0 00-2.637-.83c-1.007 0-1.63.414-1.63 1.159 0 .904 1.107 1.114 2.753 1.702 1.77.623 2.786 1.356 2.786 2.97 0 2.207-1.744 3.447-4.25 3.447-1.22 0-2.694-.313-3.827-1l.706-1.877c.92.484 2.02.77 3.002.77 1.322 0 1.951-.485 1.951-1.203 0-.822-.959-1.07-2.507-1.58-1.763-.586-2.985-1.355-2.985-3.142 0-2.013 1.62-3.17 3.951-3.17 1.624 0 2.93.513 3.654 1.06zM53.219 11.459v8.886H50.94v-8.886h-3.307V9.513h8.882v1.946h-3.297zM61.318 11.453v2.44h4.36v1.946h-4.36v2.542h5.058v1.964H59.04V9.513h7.335v1.94h-5.058zM71.46 18.242l-.72 2.102h-2.388l4.078-10.83h2.293l4.194 10.83h-2.469l-.736-2.102H71.46zm2.104-6.145l-1.486 4.337h3.002l-1.516-4.337zM90.607 13.7l-2.976 6.329h-1.285l-2.929-6.272v6.588h-2.182V9.513h2.177l3.656 7.819 3.525-7.82h2.196v10.833h-2.181V13.7zM97.193 10.88c0 .93-.7 1.51-1.505 1.51-.806 0-1.509-.58-1.509-1.51 0-.931.703-1.508 1.509-1.508.804 0 1.505.577 1.505 1.508zm-2.76 0c0 .778.563 1.268 1.255 1.268.69 0 1.251-.49 1.251-1.268 0-.781-.56-1.264-1.251-1.264-.69 0-1.256.488-1.256 1.264zm1.277-.77c.39 0 .52.205.52.427 0 .203-.12.34-.269.41l.35.652h-.286l-.295-.579h-.304v.579h-.238v-1.49h.522zm-.281.692h.266c.171 0 .273-.107.273-.242 0-.137-.073-.224-.274-.224h-.265v.466z" fill="#fff8ea"></path></svg>