<svg id="Layer_1" data-name="Layer 1" xmlns="http://www.w3.org/2000/svg" viewBox="0 0 1000 1000"><defs><style>.cls-1{fill: #fff8ea}</style></defs><path class="cls-1" d="M660.65,79.47v.7c0,12.81,3.79,197.91,198,209.45,0,172.2.09,0,.09,143-14.6.87-127.86-7.32-198.35-70.19l-.22,278.42C662,767,591.78,890.58,460.39,915.5c-36.81,7-70,7.75-125.6-4.4-320.53-95.88-214-571.29,107.82-520.42,0,153.48.09,0,.09,153.48C309.75,524.6,265.27,635.21,300.6,714.41c32.15,72.1,164.54,87.74,210.71-14q7.84-29.86,7.85-68.1V79.47Z"/></svg>